<svg aria-hidden="true" style="width:0;height:0;position:absolute;overflow:hidden" xmlns="http://www.w3.org/2000/svg"><defs><symbol id="icon-logo" viewBox="0 0 40 38"><path d="M20.406 16.755c1.916-5.185-2.052-8.023-4.681-9.888-.503-.381-1.006-.737-1.413-1.063a4.958 4.958 0 0 1-1.584-5.12.54.54 0 0 0-.417-.673.544.544 0 0 0-.292.021 8.879 8.879 0 0 0-2.438 1.45A5.785 5.785 0 0 0 7.323 6.05c-.496.39-.934.847-1.302 1.358a4.975 4.975 0 0 0-.96 3.184 6.306 6.306 0 0 0-1.916 5.922 1.706 1.706 0 0 0-.761 1.922 1.705 1.705 0 0 0 1.656 1.242h.035v2.948a1.127 1.127 0 0 0 1.131 1.129h.88L7.52 36.14a1.123 1.123 0 0 0 1.121 1.003h5.963a1.138 1.138 0 0 0 1.127-1.003l1.433-12.385h.88a1.133 1.133 0 0 0 1.131-1.128v-2.949h.035a1.717 1.717 0 0 0 1.587-2.37c-.086-.21-.214-.399-.375-.558l-.015.005ZM7.499 7.348c.724 2.713 3.52 3.78 6.069 4.734a.548.548 0 1 0 .387-1.003C11.21 10.04 8.62 9.073 8.425 6.3a4.627 4.627 0 0 1 1.834-3.976c.383-.317.793-.6 1.227-.842a6.508 6.508 0 0 0 0 1.043 5.93 5.93 0 0 0 2.122 4.126c.417.356.935.722 1.508 1.113 1.323.948 2.826 2.006 3.781 3.44a5.351 5.351 0 0 1 .549 5.09h-2.222c-4.581 0-9.846-1.264-10.886-4.804a4.05 4.05 0 0 1 1.186-4.117L7.5 7.348Zm4.123 17.094 1.68 1.674-1.68 1.675-1.68-1.685 1.68-1.664Zm3.851 4.397-1.387 1.384-1.68-1.675 1.68-1.67 1.458 1.45-.07.511Zm-3.851 3.841-1.68-1.675 1.68-1.674 1.68 1.674-1.68 1.675Zm-.77-4.122-1.679 1.675-1.397-1.394-.06-.501 1.457-1.45 1.68 1.67ZM8.4 31.005l-.337.336-.085-.762.422.426Zm-.176 1.715.95-.948 1.846 1.856c.009.037.02.074.035.11H8.339l-.116-1.018Zm5.853-.948.95.948-.116 1.003h-2.79l1.956-1.95Zm1.106-.43-.337-.337.427-.426-.09.762Zm.502-4.383-.84-.853 1.067-1.063-.226 1.916Zm-1.613-1.615-1.594-1.584h3.187l-1.593 1.584Zm-4.903 0L7.574 23.76h3.188l-1.594 1.584Zm5.43 10.71H8.64a.04.04 0 0 1-.035-.035l-.14-1.203h6.315l-.136 1.203a.04.04 0 0 1-.04.035h-.006Zm4.611-17.469h-1.75a.55.55 0 0 0-.6.544.546.546 0 0 0 .6.544h.624v2.949a.04.04 0 0 1-.04.035H5.186a.04.04 0 0 1-.04-.035v-2.949h9.96a.548.548 0 0 0 .354-.911.548.548 0 0 0-.354-.177H4.045a.626.626 0 0 1-.68-.62.62.62 0 0 1 .68-.619h1.141a.549.549 0 0 0 .496-.544.546.546 0 0 0-.496-.543H4.181a5.36 5.36 0 0 1 1.096-4.363c.352 1.093 1.257 2.587 3.52 3.776 2.126 1.108 4.942 1.674 8.366 1.674h2.011a.626.626 0 0 1 .626.369.62.62 0 0 1-.626.87h.035ZM23.582 33.715l-.406.623.009.005.398-.628Zm4.372.21.744-.016-.02-.86-.848.143.125.733Zm.051 2.288.19.72.567-.15-.013-.586-.744.016Zm-5.737.11.167-.726h-.005l-.162.725Zm-2.832-1.264.48-.568-.48.568Zm-1.024-2.325.743.004v-.004h-.743Zm.355-1.626-.667-.329v.002l.667.327Zm2.28-1.947.265.696.002-.001-.266-.695Zm7.307-.189.741.058.05-.628-.612-.151-.179.721Zm-.182 2.332-.138.73.815.155.065-.828-.742-.057Zm-1.982-.954c-1.116 0-2.055.119-2.74.42-.351.154-.67.372-.903.679a1.75 1.75 0 0 0-.355 1.075h1.488c0-.087.02-.136.052-.177.039-.05.126-.131.317-.215.4-.176 1.088-.295 2.14-.295v-1.488Zm-3.998 2.174c0 .765.343 1.396.985 1.814l.811-1.246c-.22-.144-.308-.307-.308-.568h-1.488Zm.993 1.82c.607.384 1.409.529 2.308.529v-1.488c-.777 0-1.249-.131-1.513-.298l-.795 1.256Zm2.308.529c.882 0 1.744-.072 2.586-.214l-.249-1.467a13.94 13.94 0 0 1-2.337.193v1.488Zm1.718-.931.05 2.288 1.488-.033-.051-2.288-1.487.033Zm.605 1.552c-.85.224-1.788.339-2.817.339v1.487c1.14 0 2.206-.127 3.196-.388l-.379-1.438ZM25 35.833c-1.05 0-1.9-.083-2.564-.236l-.334 1.45c.809.186 1.78.273 2.898.273v-1.487Zm-2.569-.237c-.71-.158-1.222-.327-1.564-.494l-.653 1.336c.491.24 1.13.44 1.893.61l.324-1.452Zm-1.564-.494a4.533 4.533 0 0 1-.95-.61l-.962 1.134c.372.315.793.585 1.26.812l.652-1.336Zm-.95-.611c-.506-.428-.765-.986-.76-1.753l-1.488-.007c-.006 1.17.418 2.16 1.288 2.895l.96-1.136Zm-.76-1.757c0-.5.097-.928.28-1.3L18.1 30.78a4.39 4.39 0 0 0-.432 1.954h1.487Zm.279-1.298c.338-.688.936-1.222 1.877-1.58l-.528-1.39c-1.228.466-2.15 1.23-2.684 2.313l1.335.657Zm1.88-1.58c.989-.38 2.093-.576 3.32-.576v-1.487c-1.387 0-2.674.221-3.854.674l.534 1.389Zm3.32-.576c1.252 0 2.431.14 3.54.414l.358-1.443a16.144 16.144 0 0 0-3.897-.458v1.488Zm2.977-.365-.181 2.331 1.483.116.181-2.332-1.482-.115Zm.699 1.658a11.504 11.504 0 0 0-2.121-.224v1.488c.523 0 1.136.063 1.844.197l.277-1.46Zm7.256 1.188-.004.744.756.004-.008-.756-.744.008Zm-.32-.966-.506.545.007.006.5-.55Zm-1.851.073.515.537.005-.006-.52-.531Zm-.45.879-.734-.12-.142.859.871.005.004-.744Zm5.468 3.965.45.593.267-.203.025-.334-.742-.056Zm-1.605.596-.16-.727-.004.001.164.726Zm-5.578-.204-.253.7.006.002.247-.702Zm-1.27-.675-.462.583.009.007.452-.59Zm-.85-1.068-.667.33.002.003.665-.333Zm.871-4.51.495.556-.495-.556Zm6.798-.806.297-.682-.007-.003-.29.685Zm1.706 1.569-.668.325.002.004.666-.33Zm.291 1.3.742.054.002-.027v-.027h-.744Zm-.087 1.198-.004.744.695.003.05-.693-.741-.054Zm-5.89-.029.004-.744-.97-.004.247.938.719-.19Zm.843 1.039-.367.647.003.002.363-.65Zm4.517-.255v-.743h-.149l-.137.057.286.686Zm.392 0 .742.056.06-.8h-.802v.744Zm-2.241-2.114c-.006-.538-.13-1.115-.564-1.509l-1 1.102c-.008-.008.01.002.03.066.023.068.044.182.046.357l1.488-.016Zm-.557-1.503c-.39-.362-.903-.482-1.407-.482v1.488c.29 0 .378.07.395.084l1.012-1.09Zm-1.407-.482c-.554 0-1.069.174-1.472.569l1.041 1.062c.081-.08.2-.143.43-.143v-1.488Zm-1.467.563a2.268 2.268 0 0 0-.669 1.295l1.468.241a.783.783 0 0 1 .232-.463l-1.03-1.073Zm.061 2.16 2.622.014.008-1.487-2.622-.015-.008 1.487Zm5.024 2.629c-.163.123-.561.295-1.316.461l.32 1.453c.785-.173 1.457-.398 1.894-.73l-.898-1.184Zm-1.32.462a9.41 9.41 0 0 1-2.08.243v1.488c.786 0 1.59-.095 2.408-.28l-.328-1.45Zm-2.08.243c-.701 0-1.278-.033-1.738-.095l-.199 1.474c.547.074 1.195.109 1.937.109v-1.488Zm-1.738-.095c-.452-.06-.9-.17-1.348-.327l-.495 1.403c.54.19 1.089.324 1.644.398l.199-1.474Zm-1.342-.325a3.975 3.975 0 0 1-1.072-.566l-.905 1.18c.423.325.917.584 1.47.784l.507-1.398Zm-1.063-.56a2.37 2.37 0 0 1-.646-.816l-1.33.665c.261.524.61.968 1.053 1.318l.923-1.166Zm-.645-.813c-.156-.317-.25-.724-.25-1.247H28.04c0 .698.125 1.341.404 1.906l1.333-.66Zm-.25-1.247c0-.523.095-.985.273-1.396l-1.364-.592a4.947 4.947 0 0 0-.396 1.988h1.488Zm.273-1.396c.188-.432.417-.751.677-.982l-.99-1.111c-.447.398-.793.907-1.051 1.501l1.364.592Zm.677-.983c.8-.712 2.019-1.125 3.775-1.125v-1.488c-1.97 0-3.598.463-4.765 1.503l.99 1.11Zm3.775-1.125c.789 0 1.532.15 2.237.449l.581-1.37a7.149 7.149 0 0 0-2.818-.567v1.488Zm2.23.446c.659.287 1.084.694 1.336 1.212l1.337-.65c-.426-.877-1.138-1.515-2.078-1.926l-.595 1.364Zm1.338 1.216c.139.281.213.6.213.97h1.488c0-.578-.12-1.125-.368-1.628l-1.333.658Zm.215.917-.087 1.198 1.484.108.087-1.198-1.484-.108Zm.659.508-5.89-.029-.008 1.488 5.89.029.008-1.488Zm-6.613.905c.174.659.599 1.159 1.196 1.496l.731-1.295c-.294-.166-.43-.359-.489-.58l-1.438.379Zm1.198 1.498c.604.337 1.358.472 2.2.472v-1.487c-.706 0-1.176-.117-1.474-.284l-.726 1.299Zm2.2.472c.905 0 1.899-.245 2.967-.689l-.572-1.373c-.956.398-1.75.575-2.394.575v1.487Zm2.68-.632h.393v-1.487h-.392v1.487Zm-.349-.799-.138 1.845 1.484.11.138-1.844-1.484-.111Z"/></symbol><symbol id="icon-menu" viewBox="0 0 32 32"><path d="M26.733 14H5.267c-.7 0-1.267.425-1.267.95v.1c0 .525.567.95 1.267.95h21.466c.7 0 1.267-.425 1.267-.95v-.1c0-.525-.567-.95-1.267-.95ZM26.733 20H5.267c-.7 0-1.267.425-1.267.95v.1c0 .525.567.95 1.267.95h21.466c.7 0 1.267-.425 1.267-.95v-.1c0-.525-.567-.95-1.267-.95ZM26.733 8H5.267C4.567 8 4 8.425 4 8.95v.1c0 .525.567.95 1.267.95h21.466c.7 0 1.267-.425 1.267-.95v-.1c0-.525-.567-.95-1.267-.95Z"/></symbol><symbol id="icon-cross" viewBox="0 0 32 32"><path d="M23.884 6.706 16 14.59 8.116 6.706a.998.998 0 0 0-1.41 1.41L14.586 16l-7.882 7.882a.997.997 0 1 0 1.41 1.412L16 17.412l7.884 7.884a.998.998 0 0 0 1.41-1.41l-7.884-7.884 7.884-7.886a.997.997 0 1 0-1.41-1.412v.002Z"/></symbol></defs></svg>