<svg aria-hidden="true" style="position: absolute; width: 0; height: 0; overflow: hidden;" version="1.1" xmlns="http://www.w3.org/2000/svg" xmlns:xlink="http://www.w3.org/1999/xlink">
<defs>
<symbol id="icon-group" viewBox="0 0 205 32">
<path fill="#f8d24e" style="fill: var(--color1, #f8d24e)" d="M156.54 29.617c0 0.982-0.745 1.779-1.664 1.779s-1.664-0.796-1.664-1.779c0-0.982 0.745-1.779 1.664-1.779s1.664 0.796 1.664 1.779z"></path>
<path fill="#f8d24e" style="fill: var(--color1, #f8d24e)" d="M160.146 27.245c0 0.982-0.745 1.779-1.664 1.779s-1.664-0.796-1.664-1.779c0-0.982 0.745-1.779 1.664-1.779s1.664 0.796 1.664 1.779z"></path>
<path fill="#f8d24e" style="fill: var(--color1, #f8d24e)" d="M164.305 24.578c0 0.982-0.745 1.779-1.664 1.779s-1.664-0.796-1.664-1.779c0-0.982 0.745-1.779 1.664-1.779s1.664 0.796 1.664 1.779z"></path>
<path fill="#f8d24e" style="fill: var(--color1, #f8d24e)" d="M168.189 22.207c0 0.982-0.745 1.779-1.664 1.779s-1.664-0.796-1.664-1.779c0-0.982 0.745-1.779 1.664-1.779s1.664 0.796 1.664 1.779z"></path>
<path fill="#f8d24e" style="fill: var(--color1, #f8d24e)" d="M165.969 28.431c0 0.982-0.745 1.779-1.664 1.779s-1.664-0.796-1.664-1.779c0-0.982 0.745-1.779 1.664-1.779s1.664 0.796 1.664 1.779z"></path>
<path fill="#f8d24e" style="fill: var(--color1, #f8d24e)" d="M169.575 26.060c0 0.982-0.745 1.779-1.664 1.779s-1.664-0.796-1.664-1.779c0-0.982 0.745-1.779 1.664-1.779s1.664 0.796 1.664 1.779z"></path>
<path fill="#f8d24e" style="fill: var(--color1, #f8d24e)" d="M173.734 23.392c0 0.982-0.745 1.779-1.664 1.779s-1.664-0.796-1.664-1.779c0-0.982 0.745-1.779 1.664-1.779s1.664 0.796 1.664 1.779z"></path>
<path fill="#f8d24e" style="fill: var(--color1, #f8d24e)" d="M177.619 21.021c0 0.982-0.745 1.779-1.664 1.779s-1.664-0.796-1.664-1.779c0-0.982 0.745-1.779 1.664-1.779s1.664 0.796 1.664 1.779z"></path>
<path fill="#f8d24e" style="fill: var(--color1, #f8d24e)" d="M174.013 27.542c0 0.982-0.745 1.779-1.664 1.779s-1.664-0.796-1.664-1.779c0-0.982 0.745-1.779 1.664-1.779s1.664 0.796 1.664 1.779z"></path>
<path fill="#f8d24e" style="fill: var(--color1, #f8d24e)" d="M177.619 25.171c0 0.982-0.745 1.779-1.664 1.779s-1.664-0.796-1.664-1.779c0-0.982 0.745-1.779 1.664-1.779s1.664 0.796 1.664 1.779z"></path>
<path fill="#f8d24e" style="fill: var(--color1, #f8d24e)" d="M181.779 22.503c0 0.982-0.745 1.779-1.664 1.779s-1.664-0.796-1.664-1.779c0-0.982 0.745-1.779 1.664-1.779s1.664 0.796 1.664 1.779z"></path>
<path fill="#f8d24e" style="fill: var(--color1, #f8d24e)" d="M185.661 20.132c0 0.982-0.745 1.779-1.664 1.779s-1.664-0.796-1.664-1.779c0-0.982 0.745-1.779 1.664-1.779s1.664 0.796 1.664 1.779z"></path>
<path fill="#f8d24e" style="fill: var(--color1, #f8d24e)" d="M181.778 26.356c0 0.982-0.745 1.779-1.664 1.779s-1.664-0.796-1.664-1.779c0-0.982 0.745-1.779 1.664-1.779s1.664 0.796 1.664 1.779z"></path>
<path fill="#f8d24e" style="fill: var(--color1, #f8d24e)" d="M185.383 23.985c0 0.982-0.745 1.779-1.664 1.779s-1.664-0.796-1.664-1.779c0-0.982 0.745-1.779 1.664-1.779s1.664 0.796 1.664 1.779z"></path>
<path fill="#f8d24e" style="fill: var(--color1, #f8d24e)" d="M189.543 21.318c0 0.982-0.745 1.779-1.664 1.779s-1.664-0.796-1.664-1.779c0-0.982 0.745-1.779 1.664-1.779s1.664 0.796 1.664 1.779z"></path>
<path fill="#f8d24e" style="fill: var(--color1, #f8d24e)" d="M193.427 18.947c0 0.982-0.745 1.779-1.664 1.779s-1.664-0.796-1.664-1.779c0-0.982 0.745-1.779 1.664-1.779s1.664 0.796 1.664 1.779z"></path>
<path fill="#f8d24e" style="fill: var(--color1, #f8d24e)" d="M184.276 29.617c0 0.982-0.745 1.779-1.664 1.779s-1.664-0.796-1.664-1.779c0-0.982 0.745-1.779 1.664-1.779s1.664 0.796 1.664 1.779z"></path>
<path fill="#f8d24e" style="fill: var(--color1, #f8d24e)" d="M187.882 27.245c0 0.982-0.745 1.779-1.664 1.779s-1.664-0.796-1.664-1.779c0-0.982 0.745-1.779 1.664-1.779s1.664 0.796 1.664 1.779z"></path>
<path fill="#f8d24e" style="fill: var(--color1, #f8d24e)" d="M192.874 29.913c0 0.982-0.745 1.779-1.664 1.779s-1.664-0.796-1.664-1.779c0-0.982 0.745-1.779 1.664-1.779s1.664 0.796 1.664 1.779z"></path>
<path fill="#f8d24e" style="fill: var(--color1, #f8d24e)" d="M192.042 24.578c0 0.982-0.745 1.779-1.664 1.779s-1.664-0.796-1.664-1.779c0-0.982 0.745-1.779 1.664-1.779s1.664 0.796 1.664 1.779z"></path>
<path fill="#f8d24e" style="fill: var(--color1, #f8d24e)" d="M197.034 27.245c0 0.982-0.745 1.779-1.664 1.779s-1.664-0.796-1.664-1.779c0-0.982 0.745-1.779 1.664-1.779s1.664 0.796 1.664 1.779z"></path>
<path fill="#f8d24e" style="fill: var(--color1, #f8d24e)" d="M200.918 29.913c0 0.982-0.745 1.779-1.664 1.779s-1.664-0.796-1.664-1.779c0-0.982 0.745-1.779 1.664-1.779s1.664 0.796 1.664 1.779z"></path>
<path fill="#f8d24e" style="fill: var(--color1, #f8d24e)" d="M195.925 22.207c0 0.982-0.745 1.779-1.664 1.779s-1.664-0.796-1.664-1.779c0-0.982 0.745-1.779 1.664-1.779s1.664 0.796 1.664 1.779z"></path>
<path fill="#f8d24e" style="fill: var(--color1, #f8d24e)" d="M200.918 24.874c0 0.982-0.745 1.779-1.664 1.779s-1.664-0.796-1.664-1.779c0-0.982 0.745-1.779 1.664-1.779s1.664 0.796 1.664 1.779z"></path>
<path fill="#f8d24e" style="fill: var(--color1, #f8d24e)" d="M204.801 27.542c0 0.982-0.745 1.779-1.664 1.779s-1.664-0.796-1.664-1.779c0-0.982 0.745-1.779 1.664-1.779s1.664 0.796 1.664 1.779z"></path>
<path fill="#f8d24e" style="fill: var(--color1, #f8d24e)" d="M139.622 10.055c0 0.982-0.745 1.779-1.664 1.779s-1.664-0.796-1.664-1.779c0-0.982 0.745-1.779 1.664-1.779s1.664 0.796 1.664 1.779z"></path>
<path fill="#f8d24e" style="fill: var(--color1, #f8d24e)" d="M143.227 7.684c0 0.982-0.745 1.779-1.664 1.779s-1.664-0.796-1.664-1.779c0-0.982 0.745-1.779 1.664-1.779s1.664 0.796 1.664 1.779z"></path>
<path fill="#f8d24e" style="fill: var(--color1, #f8d24e)" d="M147.388 5.016c0 0.982-0.745 1.779-1.664 1.779s-1.664-0.796-1.664-1.779c0-0.982 0.745-1.779 1.664-1.779s1.664 0.796 1.664 1.779z"></path>
<path fill="#f8d24e" style="fill: var(--color1, #f8d24e)" d="M151.27 2.645c0 0.982-0.745 1.779-1.664 1.779s-1.664-0.796-1.664-1.779c0-0.982 0.745-1.779 1.664-1.779s1.664 0.796 1.664 1.779z"></path>
<path fill="#f8d24e" style="fill: var(--color1, #f8d24e)" d="M132.687 9.758c0 0.982-0.745 1.779-1.664 1.779s-1.664-0.796-1.664-1.779c0-0.982 0.745-1.779 1.664-1.779s1.664 0.796 1.664 1.779z"></path>
<path fill="#f8d24e" style="fill: var(--color1, #f8d24e)" d="M136.292 7.387c0 0.982-0.745 1.779-1.664 1.779s-1.664-0.796-1.664-1.779c0-0.982 0.745-1.779 1.664-1.779s1.664 0.796 1.664 1.779z"></path>
<path fill="#f8d24e" style="fill: var(--color1, #f8d24e)" d="M140.452 4.72c0 0.982-0.745 1.779-1.664 1.779s-1.664-0.796-1.664-1.779c0-0.982 0.745-1.779 1.664-1.779s1.664 0.796 1.664 1.779z"></path>
<path fill="#f8d24e" style="fill: var(--color1, #f8d24e)" d="M144.335 2.349c0 0.982-0.745 1.779-1.664 1.779s-1.664-0.796-1.664-1.779c0-0.982 0.745-1.779 1.664-1.779s1.664 0.796 1.664 1.779z"></path>
<path fill="#f8d24e" style="fill: var(--color1, #f8d24e)" d="M148.219 29.617c0 0.982-0.745 1.779-1.664 1.779s-1.664-0.796-1.664-1.779c0-0.982 0.745-1.779 1.664-1.779s1.664 0.796 1.664 1.779z"></path>
<path fill="#f8d24e" style="fill: var(--color1, #f8d24e)" d="M151.824 27.245c0 0.982-0.745 1.779-1.664 1.779s-1.664-0.796-1.664-1.779c0-0.982 0.745-1.779 1.664-1.779s1.664 0.796 1.664 1.779z"></path>
<path fill="#f8d24e" style="fill: var(--color1, #f8d24e)" d="M155.984 24.578c0 0.982-0.745 1.779-1.664 1.779s-1.664-0.796-1.664-1.779c0-0.982 0.745-1.779 1.664-1.779s1.664 0.796 1.664 1.779z"></path>
<path fill="#f8d24e" style="fill: var(--color1, #f8d24e)" d="M159.868 22.207c0 0.982-0.745 1.779-1.664 1.779s-1.664-0.796-1.664-1.779c0-0.982 0.745-1.779 1.664-1.779s1.664 0.796 1.664 1.779z"></path>
<path fill="#f8d24e" style="fill: var(--color1, #f8d24e)" d="M143.781 27.839c0 0.982-0.745 1.779-1.664 1.779s-1.664-0.796-1.664-1.779c0-0.982 0.745-1.779 1.664-1.779s1.664 0.796 1.664 1.779z"></path>
<path fill="#f8d24e" style="fill: var(--color1, #f8d24e)" d="M147.387 25.468c0 0.982-0.745 1.779-1.664 1.779s-1.664-0.796-1.664-1.779c0-0.982 0.745-1.779 1.664-1.779s1.664 0.796 1.664 1.779z"></path>
<path fill="#f8d24e" style="fill: var(--color1, #f8d24e)" d="M151.547 22.799c0 0.982-0.745 1.779-1.664 1.779s-1.664-0.796-1.664-1.779c0-0.982 0.745-1.779 1.664-1.779s1.664 0.796 1.664 1.779z"></path>
<path fill="#f8d24e" style="fill: var(--color1, #f8d24e)" d="M155.43 20.429c0 0.982-0.745 1.779-1.664 1.779s-1.664-0.796-1.664-1.779c0-0.982 0.745-1.779 1.664-1.779s1.664 0.796 1.664 1.779z"></path>
<path fill="#f8d24e" style="fill: var(--color1, #f8d24e)" d="M145.446 21.614c0 0.982-0.745 1.779-1.664 1.779s-1.664-0.796-1.664-1.779c0-0.982 0.745-1.779 1.664-1.779s1.664 0.796 1.664 1.779z"></path>
<path fill="#f8d24e" style="fill: var(--color1, #f8d24e)" d="M149.051 19.243c0 0.982-0.745 1.779-1.664 1.779s-1.664-0.796-1.664-1.779c0-0.982 0.745-1.779 1.664-1.779s1.664 0.796 1.664 1.779z"></path>
<path fill="#f8d24e" style="fill: var(--color1, #f8d24e)" d="M153.212 16.575c0 0.982-0.745 1.779-1.664 1.779s-1.664-0.796-1.664-1.779c0-0.982 0.745-1.779 1.664-1.779s1.664 0.796 1.664 1.779z"></path>
<path fill="#f8d24e" style="fill: var(--color1, #f8d24e)" d="M157.094 14.204c0 0.982-0.745 1.779-1.664 1.779s-1.664-0.796-1.664-1.779c0-0.982 0.745-1.779 1.664-1.779s1.664 0.796 1.664 1.779z"></path>
<path fill="#f8d24e" style="fill: var(--color1, #f8d24e)" d="M145.446 11.24c0 0.982-0.745 1.779-1.664 1.779s-1.664-0.796-1.664-1.779c0-0.982 0.745-1.779 1.664-1.779s1.664 0.796 1.664 1.779z"></path>
<path fill="#f8d24e" style="fill: var(--color1, #f8d24e)" d="M149.051 8.869c0 0.982-0.745 1.779-1.664 1.779s-1.664-0.796-1.664-1.779c0-0.982 0.745-1.779 1.664-1.779s1.664 0.796 1.664 1.779z"></path>
<path fill="#f8d24e" style="fill: var(--color1, #f8d24e)" d="M153.212 6.202c0 0.982-0.745 1.779-1.664 1.779s-1.664-0.796-1.664-1.779c0-0.982 0.745-1.779 1.664-1.779s1.664 0.796 1.664 1.779z"></path>
<path fill="#f8d24e" style="fill: var(--color1, #f8d24e)" d="M157.094 3.83c0 0.982-0.745 1.779-1.664 1.779s-1.664-0.796-1.664-1.779c0-0.982 0.745-1.779 1.664-1.779s1.664 0.796 1.664 1.779z"></path>
<path fill="#f8d24e" style="fill: var(--color1, #f8d24e)" d="M144.613 16.872c0 0.982-0.745 1.779-1.664 1.779s-1.664-0.796-1.664-1.779c0-0.982 0.745-1.779 1.664-1.779s1.664 0.796 1.664 1.779z"></path>
<path fill="#f8d24e" style="fill: var(--color1, #f8d24e)" d="M148.22 14.5c0 0.982-0.745 1.779-1.664 1.779s-1.664-0.796-1.664-1.779c0-0.982 0.745-1.779 1.664-1.779s1.664 0.796 1.664 1.779z"></path>
<path fill="#f8d24e" style="fill: var(--color1, #f8d24e)" d="M152.379 11.834c0 0.982-0.745 1.779-1.664 1.779s-1.664-0.796-1.664-1.779c0-0.982 0.745-1.779 1.664-1.779s1.664 0.796 1.664 1.779z"></path>
<path fill="#f8d24e" style="fill: var(--color1, #f8d24e)" d="M156.262 9.462c0 0.982-0.745 1.779-1.664 1.779s-1.664-0.796-1.664-1.779c0-0.982 0.745-1.779 1.664-1.779s1.664 0.796 1.664 1.779z"></path>
<path fill="#f8d24e" style="fill: var(--color1, #f8d24e)" d="M127.14 8.276c0 0.982-0.745 1.779-1.664 1.779s-1.664-0.796-1.664-1.779c0-0.982 0.745-1.779 1.664-1.779s1.664 0.796 1.664 1.779z"></path>
<path fill="#f8d24e" style="fill: var(--color1, #f8d24e)" d="M130.746 5.905c0 0.982-0.745 1.779-1.664 1.779s-1.664-0.796-1.664-1.779c0-0.982 0.745-1.779 1.664-1.779s1.664 0.796 1.664 1.779z"></path>
<path fill="#f8d24e" style="fill: var(--color1, #f8d24e)" d="M134.906 3.238c0 0.982-0.745 1.779-1.664 1.779s-1.664-0.796-1.664-1.779c0-0.982 0.745-1.779 1.664-1.779s1.664 0.796 1.664 1.779z"></path>
<path fill="#f8d24e" style="fill: var(--color1, #f8d24e)" d="M132.964 10.054c0.919 0 1.665-0.796 1.665-1.778s-0.746-1.779-1.665-1.779-1.664 0.796-1.664 1.779c0 0.982 0.745 1.778 1.664 1.778z"></path>
<path fill="#f8d24e" style="fill: var(--color1, #f8d24e)" d="M56.441 21.475c0.141 0.985-0.491 1.907-1.413 2.058s-1.784-0.525-1.925-1.511c-0.141-0.985 0.491-1.907 1.413-2.058s1.784 0.525 1.925 1.511z"></path>
<path fill="#f8d24e" style="fill: var(--color1, #f8d24e)" d="M59.717 18.504c0.141 0.985-0.491 1.907-1.413 2.058s-1.784-0.525-1.925-1.511c-0.141-0.985 0.491-1.907 1.413-2.058s1.784 0.525 1.925 1.511z"></path>
<path fill="#f8d24e" style="fill: var(--color1, #f8d24e)" d="M63.506 15.144c0.141 0.985-0.491 1.906-1.413 2.058s-1.784-0.525-1.925-1.511c-0.141-0.985 0.491-1.906 1.413-2.058s1.784 0.525 1.925 1.511z"></path>
<path fill="#f8d24e" style="fill: var(--color1, #f8d24e)" d="M67.060 12.128c0.141 0.985-0.491 1.906-1.413 2.058s-1.784-0.525-1.925-1.511c-0.141-0.985 0.491-1.906 1.413-2.058s1.784 0.525 1.925 1.511z"></path>
<path fill="#f8d24e" style="fill: var(--color1, #f8d24e)" d="M3.482 21.473c0 0.997-0.779 1.805-1.741 1.805s-1.741-0.808-1.741-1.805c0-0.997 0.779-1.805 1.741-1.805s1.741 0.808 1.741 1.805z"></path>
<path fill="#f8d24e" style="fill: var(--color1, #f8d24e)" d="M7.252 19.067c0 0.997-0.779 1.805-1.741 1.805s-1.741-0.808-1.741-1.805c0-0.997 0.779-1.805 1.741-1.805s1.741 0.808 1.741 1.805z"></path>
<path fill="#f8d24e" style="fill: var(--color1, #f8d24e)" d="M11.605 16.36c0 0.997-0.779 1.805-1.741 1.805s-1.741-0.808-1.741-1.805c0-0.997 0.779-1.805 1.741-1.805s1.741 0.808 1.741 1.805z"></path>
<path fill="#f8d24e" style="fill: var(--color1, #f8d24e)" d="M15.666 13.953c0 0.997-0.779 1.805-1.741 1.805s-1.741-0.808-1.741-1.805c0-0.997 0.779-1.805 1.741-1.805s1.741 0.808 1.741 1.805z"></path>
<path fill="#f8d24e" style="fill: var(--color1, #f8d24e)" d="M5.222 25.984c0 0.997-0.779 1.805-1.741 1.805s-1.741-0.808-1.741-1.805c0-0.997 0.779-1.805 1.741-1.805s1.741 0.808 1.741 1.805z"></path>
<path fill="#f8d24e" style="fill: var(--color1, #f8d24e)" d="M8.994 23.578c0 0.997-0.779 1.805-1.741 1.805s-1.741-0.808-1.741-1.805c0-0.997 0.779-1.805 1.741-1.805s1.741 0.808 1.741 1.805z"></path>
<path fill="#f8d24e" style="fill: var(--color1, #f8d24e)" d="M13.347 20.871c0 0.997-0.779 1.805-1.741 1.805s-1.741-0.808-1.741-1.805c0-0.997 0.779-1.805 1.741-1.805s1.741 0.808 1.741 1.805z"></path>
<path fill="#f8d24e" style="fill: var(--color1, #f8d24e)" d="M17.407 18.465c0 0.997-0.779 1.805-1.741 1.805s-1.741-0.808-1.741-1.805c0-0.997 0.779-1.805 1.741-1.805s1.741 0.808 1.741 1.805z"></path>
<path fill="#f8d24e" style="fill: var(--color1, #f8d24e)" d="M9.573 28.39c0 0.997-0.779 1.805-1.741 1.805s-1.741-0.808-1.741-1.805c0-0.997 0.779-1.805 1.741-1.805s1.741 0.808 1.741 1.805z"></path>
<path fill="#f8d24e" style="fill: var(--color1, #f8d24e)" d="M13.345 25.984c0 0.997-0.779 1.805-1.741 1.805s-1.741-0.808-1.741-1.805c0-0.997 0.779-1.805 1.741-1.805s1.741 0.808 1.741 1.805z"></path>
<path fill="#f8d24e" style="fill: var(--color1, #f8d24e)" d="M17.697 23.277c0 0.997-0.779 1.805-1.741 1.805s-1.741-0.808-1.741-1.805c0-0.997 0.779-1.805 1.741-1.805s1.741 0.808 1.741 1.805z"></path>
<path fill="#f8d24e" style="fill: var(--color1, #f8d24e)" d="M21.757 20.871c0 0.997-0.779 1.805-1.741 1.805s-1.741-0.808-1.741-1.805c0-0.997 0.779-1.805 1.741-1.805s1.741 0.808 1.741 1.805z"></path>
<path fill="#f8d24e" style="fill: var(--color1, #f8d24e)" d="M14.504 29.895c0 0.997-0.779 1.805-1.741 1.805s-1.741-0.808-1.741-1.805c0-0.997 0.779-1.805 1.741-1.805s1.741 0.808 1.741 1.805z"></path>
<path fill="#f8d24e" style="fill: var(--color1, #f8d24e)" d="M18.276 27.488c0 0.997-0.779 1.805-1.741 1.805s-1.741-0.808-1.741-1.805c0-0.997 0.779-1.805 1.741-1.805s1.741 0.808 1.741 1.805z"></path>
<path fill="#f8d24e" style="fill: var(--color1, #f8d24e)" d="M22.629 24.781c0 0.997-0.779 1.805-1.741 1.805s-1.741-0.808-1.741-1.805c0-0.997 0.779-1.805 1.741-1.805s1.741 0.808 1.741 1.805z"></path>
<path fill="#f8d24e" style="fill: var(--color1, #f8d24e)" d="M26.689 22.375c0 0.997-0.779 1.805-1.741 1.805s-1.741-0.808-1.741-1.805c0-0.997 0.779-1.805 1.741-1.805s1.741 0.808 1.741 1.805z"></path>
<path fill="#f8d24e" style="fill: var(--color1, #f8d24e)" d="M20.888 30.196c0 0.997-0.779 1.805-1.741 1.805s-1.741-0.808-1.741-1.805c0-0.997 0.779-1.805 1.741-1.805s1.741 0.808 1.741 1.805z"></path>
<path fill="#f8d24e" style="fill: var(--color1, #f8d24e)" d="M24.659 27.789c0 0.997-0.779 1.805-1.741 1.805s-1.741-0.808-1.741-1.805c0-0.997 0.779-1.805 1.741-1.805s1.741 0.808 1.741 1.805z"></path>
<path fill="#f8d24e" style="fill: var(--color1, #f8d24e)" d="M29.011 25.082c0 0.997-0.779 1.805-1.741 1.805s-1.741-0.808-1.741-1.805c0-0.997 0.779-1.805 1.741-1.805s1.741 0.808 1.741 1.805z"></path>
<path fill="#f8d24e" style="fill: var(--color1, #f8d24e)" d="M33.072 22.676c0 0.997-0.779 1.805-1.741 1.805s-1.741-0.808-1.741-1.805c0-0.997 0.779-1.805 1.741-1.805s1.741 0.808 1.741 1.805z"></path>
<path fill="#f8d24e" style="fill: var(--color1, #f8d24e)" d="M28.431 30.195c0 0.997-0.779 1.805-1.741 1.805s-1.741-0.808-1.741-1.805c0-0.997 0.779-1.805 1.741-1.805s1.741 0.808 1.741 1.805z"></path>
<path fill="#f8d24e" style="fill: var(--color1, #f8d24e)" d="M32.202 27.789c0 0.997-0.779 1.805-1.741 1.805s-1.741-0.808-1.741-1.805c0-0.997 0.779-1.805 1.741-1.805s1.741 0.808 1.741 1.805z"></path>
<path fill="#f8d24e" style="fill: var(--color1, #f8d24e)" d="M36.554 25.082c0 0.997-0.779 1.805-1.741 1.805s-1.741-0.808-1.741-1.805c0-0.997 0.779-1.805 1.741-1.805s1.741 0.808 1.741 1.805z"></path>
<path fill="#f8d24e" style="fill: var(--color1, #f8d24e)" d="M40.616 22.676c0 0.997-0.779 1.805-1.741 1.805s-1.741-0.808-1.741-1.805c0-0.997 0.779-1.805 1.741-1.805s1.741 0.808 1.741 1.805z"></path>
<path fill="#f8d24e" style="fill: var(--color1, #f8d24e)" d="M34.812 29.894c0 0.997-0.779 1.805-1.741 1.805s-1.741-0.808-1.741-1.805c0-0.997 0.779-1.805 1.741-1.805s1.741 0.808 1.741 1.805z"></path>
<path fill="#f8d24e" style="fill: var(--color1, #f8d24e)" d="M38.583 27.488c0 0.997-0.779 1.805-1.741 1.805s-1.741-0.808-1.741-1.805c0-0.997 0.779-1.805 1.741-1.805s1.741 0.808 1.741 1.805z"></path>
<path fill="#f8d24e" style="fill: var(--color1, #f8d24e)" d="M42.936 24.781c0 0.997-0.779 1.805-1.741 1.805s-1.741-0.808-1.741-1.805c0-0.997 0.779-1.805 1.741-1.805s1.741 0.808 1.741 1.805z"></path>
<path fill="#f8d24e" style="fill: var(--color1, #f8d24e)" d="M46.996 22.375c0 0.997-0.779 1.805-1.741 1.805s-1.741-0.808-1.741-1.805c0-0.997 0.779-1.805 1.741-1.805s1.741 0.808 1.741 1.805z"></path>
<path fill="#f8d24e" style="fill: var(--color1, #f8d24e)" d="M42.065 29.594c0 0.997-0.779 1.805-1.741 1.805s-1.741-0.808-1.741-1.805c0-0.997 0.779-1.805 1.741-1.805s1.741 0.808 1.741 1.805z"></path>
<path fill="#f8d24e" style="fill: var(--color1, #f8d24e)" d="M45.836 27.187c0 0.997-0.779 1.805-1.741 1.805s-1.741-0.808-1.741-1.805c0-0.997 0.779-1.805 1.741-1.805s1.741 0.808 1.741 1.805z"></path>
<path fill="#f8d24e" style="fill: var(--color1, #f8d24e)" d="M50.188 24.481c0 0.997-0.779 1.805-1.741 1.805s-1.741-0.808-1.741-1.805c0-0.997 0.779-1.805 1.741-1.805s1.741 0.808 1.741 1.805z"></path>
<path fill="#f8d24e" style="fill: var(--color1, #f8d24e)" d="M54.249 22.074c0 0.997-0.779 1.805-1.741 1.805s-1.741-0.808-1.741-1.805c0-0.997 0.779-1.805 1.741-1.805s1.741 0.808 1.741 1.805z"></path>
<path fill="#f8d24e" style="fill: var(--color1, #f8d24e)" d="M48.737 21.773c0 0.997-0.779 1.805-1.741 1.805s-1.741-0.808-1.741-1.805c0-0.997 0.779-1.805 1.741-1.805s1.741 0.808 1.741 1.805z"></path>
<path fill="#f8d24e" style="fill: var(--color1, #f8d24e)" d="M52.508 19.367c0 0.997-0.779 1.805-1.741 1.805s-1.741-0.808-1.741-1.805c0-0.997 0.779-1.805 1.741-1.805s1.741 0.808 1.741 1.805z"></path>
<path fill="#f8d24e" style="fill: var(--color1, #f8d24e)" d="M56.86 16.66c0 0.997-0.779 1.805-1.741 1.805s-1.741-0.808-1.741-1.805c0-0.997 0.779-1.805 1.741-1.805s1.741 0.808 1.741 1.805z"></path>
<path fill="#f8d24e" style="fill: var(--color1, #f8d24e)" d="M60.922 14.254c0 0.997-0.779 1.805-1.741 1.805s-1.741-0.808-1.741-1.805c0-0.997 0.779-1.805 1.741-1.805s1.741 0.808 1.741 1.805z"></path>
</symbol>
<symbol id="icon-group_1" viewBox="0 0 356 32">
<path fill="#f8d24e" style="fill: var(--color1, #f8d24e)" d="M306.022 29.57c0 1.021-0.832 1.849-1.857 1.849s-1.857-0.828-1.857-1.849c0-1.021 0.832-1.849 1.857-1.849s1.857 0.828 1.857 1.849z"></path>
<path fill="#f8d24e" style="fill: var(--color1, #f8d24e)" d="M309.737 27.258c0 1.021-0.832 1.849-1.857 1.849s-1.857-0.828-1.857-1.849c0-1.021 0.832-1.849 1.857-1.849s1.857 0.828 1.857 1.849z"></path>
<path fill="#f8d24e" style="fill: var(--color1, #f8d24e)" d="M314.38 24.485c0 1.021-0.832 1.849-1.857 1.849s-1.857-0.828-1.857-1.849c0-1.021 0.832-1.849 1.857-1.849s1.857 0.828 1.857 1.849z"></path>
<path fill="#f8d24e" style="fill: var(--color1, #f8d24e)" d="M318.095 22.173c0 1.021-0.832 1.849-1.857 1.849s-1.857-0.828-1.857-1.849c0-1.021 0.832-1.849 1.857-1.849s1.857 0.828 1.857 1.849z"></path>
<path fill="#f8d24e" style="fill: var(--color1, #f8d24e)" d="M315.773 28.646c0 1.021-0.832 1.849-1.857 1.849s-1.857-0.828-1.857-1.849c0-1.021 0.832-1.849 1.857-1.849s1.857 0.828 1.857 1.849z"></path>
<path fill="#f8d24e" style="fill: var(--color1, #f8d24e)" d="M319.488 26.334c0 1.021-0.832 1.849-1.857 1.849s-1.857-0.828-1.857-1.849c0-1.021 0.832-1.849 1.857-1.849s1.857 0.828 1.857 1.849z"></path>
<path fill="#f8d24e" style="fill: var(--color1, #f8d24e)" d="M324.132 23.56c0 1.021-0.832 1.849-1.857 1.849s-1.857-0.828-1.857-1.849c0-1.021 0.832-1.849 1.857-1.849s1.857 0.828 1.857 1.849z"></path>
<path fill="#f8d24e" style="fill: var(--color1, #f8d24e)" d="M327.847 21.248c0 1.021-0.832 1.849-1.857 1.849s-1.857-0.828-1.857-1.849c0-1.021 0.832-1.849 1.857-1.849s1.857 0.828 1.857 1.849z"></path>
<path fill="#f8d24e" style="fill: var(--color1, #f8d24e)" d="M324.132 27.721c0 1.021-0.832 1.849-1.857 1.849s-1.857-0.828-1.857-1.849c0-1.021 0.832-1.849 1.857-1.849s1.857 0.828 1.857 1.849z"></path>
<path fill="#f8d24e" style="fill: var(--color1, #f8d24e)" d="M327.847 25.409c0 1.021-0.832 1.849-1.857 1.849s-1.857-0.828-1.857-1.849c0-1.021 0.832-1.849 1.857-1.849s1.857 0.828 1.857 1.849z"></path>
<path fill="#f8d24e" style="fill: var(--color1, #f8d24e)" d="M332.491 22.635c0 1.021-0.832 1.849-1.857 1.849s-1.857-0.828-1.857-1.849c0-1.021 0.832-1.849 1.857-1.849s1.857 0.828 1.857 1.849z"></path>
<path fill="#f8d24e" style="fill: var(--color1, #f8d24e)" d="M336.206 20.323c0 1.021-0.832 1.849-1.857 1.849s-1.857-0.828-1.857-1.849c0-1.021 0.832-1.849 1.857-1.849s1.857 0.828 1.857 1.849z"></path>
<path fill="#f8d24e" style="fill: var(--color1, #f8d24e)" d="M332.491 26.334c0 1.021-0.832 1.849-1.857 1.849s-1.857-0.828-1.857-1.849c0-1.021 0.832-1.849 1.857-1.849s1.857 0.828 1.857 1.849z"></path>
<path fill="#f8d24e" style="fill: var(--color1, #f8d24e)" d="M336.206 24.022c0 1.021-0.832 1.849-1.857 1.849s-1.857-0.828-1.857-1.849c0-1.021 0.832-1.849 1.857-1.849s1.857 0.828 1.857 1.849z"></path>
<path fill="#f8d24e" style="fill: var(--color1, #f8d24e)" d="M340.85 21.248c0 1.021-0.832 1.849-1.857 1.849s-1.857-0.828-1.857-1.849c0-1.021 0.832-1.849 1.857-1.849s1.857 0.828 1.857 1.849z"></path>
<path fill="#f8d24e" style="fill: var(--color1, #f8d24e)" d="M344.564 18.936c0 1.021-0.832 1.849-1.857 1.849s-1.857-0.828-1.857-1.849c0-1.021 0.832-1.849 1.857-1.849s1.857 0.828 1.857 1.849z"></path>
<path fill="#f8d24e" style="fill: var(--color1, #f8d24e)" d="M334.813 29.57c0 1.021-0.832 1.849-1.857 1.849s-1.857-0.828-1.857-1.849c0-1.021 0.832-1.849 1.857-1.849s1.857 0.828 1.857 1.849z"></path>
<path fill="#f8d24e" style="fill: var(--color1, #f8d24e)" d="M338.528 27.258c0 1.021-0.832 1.849-1.857 1.849s-1.857-0.828-1.857-1.849c0-1.021 0.832-1.849 1.857-1.849s1.857 0.828 1.857 1.849z"></path>
<path fill="#f8d24e" style="fill: var(--color1, #f8d24e)" d="M343.636 30.033c0 1.021-0.832 1.849-1.857 1.849s-1.857-0.828-1.857-1.849c0-1.021 0.832-1.849 1.857-1.849s1.857 0.828 1.857 1.849z"></path>
<path fill="#f8d24e" style="fill: var(--color1, #f8d24e)" d="M343.171 24.485c0 1.021-0.832 1.849-1.857 1.849s-1.857-0.828-1.857-1.849c0-1.021 0.832-1.849 1.857-1.849s1.857 0.828 1.857 1.849z"></path>
<path fill="#f8d24e" style="fill: var(--color1, #f8d24e)" d="M348.279 27.258c0 1.021-0.832 1.849-1.857 1.849s-1.857-0.828-1.857-1.849c0-1.021 0.832-1.849 1.857-1.849s1.857 0.828 1.857 1.849z"></path>
<path fill="#f8d24e" style="fill: var(--color1, #f8d24e)" d="M352.459 30.033c0 1.021-0.832 1.849-1.857 1.849s-1.857-0.828-1.857-1.849c0-1.021 0.832-1.849 1.857-1.849s1.857 0.828 1.857 1.849z"></path>
<path fill="#f8d24e" style="fill: var(--color1, #f8d24e)" d="M346.887 22.173c0 1.021-0.832 1.849-1.857 1.849s-1.857-0.828-1.857-1.849c0-1.021 0.832-1.849 1.857-1.849s1.857 0.828 1.857 1.849z"></path>
<path fill="#f8d24e" style="fill: var(--color1, #f8d24e)" d="M352.459 24.947c0 1.021-0.832 1.849-1.857 1.849s-1.857-0.828-1.857-1.849c0-1.021 0.832-1.849 1.857-1.849s1.857 0.828 1.857 1.849z"></path>
<path fill="#f8d24e" style="fill: var(--color1, #f8d24e)" d="M356.174 27.721c0 1.021-0.832 1.849-1.857 1.849s-1.857-0.828-1.857-1.849c0-1.021 0.832-1.849 1.857-1.849s1.857 0.828 1.857 1.849z"></path>
<path fill="#f8d24e" style="fill: var(--color1, #f8d24e)" d="M288.376 10.151c0 1.021-0.832 1.849-1.857 1.849s-1.857-0.828-1.857-1.849c0-1.021 0.832-1.849 1.857-1.849s1.857 0.828 1.857 1.849z"></path>
<path fill="#f8d24e" style="fill: var(--color1, #f8d24e)" d="M292.090 7.839c0 1.021-0.832 1.849-1.857 1.849s-1.857-0.828-1.857-1.849c0-1.021 0.832-1.849 1.857-1.849s1.857 0.828 1.857 1.849z"></path>
<path fill="#f8d24e" style="fill: var(--color1, #f8d24e)" d="M296.734 5.065c0 1.021-0.832 1.849-1.857 1.849s-1.857-0.828-1.857-1.849c0-1.021 0.832-1.849 1.857-1.849s1.857 0.828 1.857 1.849z"></path>
<path fill="#f8d24e" style="fill: var(--color1, #f8d24e)" d="M300.449 2.753c0 1.021-0.832 1.85-1.857 1.85s-1.857-0.828-1.857-1.849c0-1.021 0.832-1.849 1.857-1.849s1.857 0.828 1.857 1.849z"></path>
<path fill="#f8d24e" style="fill: var(--color1, #f8d24e)" d="M280.946 9.689c0 1.021-0.832 1.85-1.857 1.85s-1.857-0.828-1.857-1.849c0-1.021 0.832-1.849 1.857-1.849s1.857 0.828 1.857 1.849z"></path>
<path fill="#f8d24e" style="fill: var(--color1, #f8d24e)" d="M284.66 7.377c0 1.021-0.832 1.849-1.857 1.849s-1.857-0.828-1.857-1.849c0-1.021 0.832-1.849 1.857-1.849s1.857 0.828 1.857 1.849z"></path>
<path fill="#f8d24e" style="fill: var(--color1, #f8d24e)" d="M289.304 4.602c0 1.021-0.832 1.849-1.857 1.849s-1.857-0.828-1.857-1.849c0-1.021 0.832-1.849 1.857-1.849s1.857 0.828 1.857 1.849z"></path>
<path fill="#f8d24e" style="fill: var(--color1, #f8d24e)" d="M293.019 2.291c0 1.021-0.832 1.849-1.857 1.849s-1.857-0.828-1.857-1.849c0-1.021 0.832-1.849 1.857-1.849s1.857 0.828 1.857 1.849z"></path>
<path fill="#f8d24e" style="fill: var(--color1, #f8d24e)" d="M297.198 29.57c0 1.021-0.832 1.849-1.857 1.849s-1.857-0.828-1.857-1.849c0-1.021 0.832-1.849 1.857-1.849s1.857 0.828 1.857 1.849z"></path>
<path fill="#f8d24e" style="fill: var(--color1, #f8d24e)" d="M300.914 27.258c0 1.021-0.832 1.849-1.857 1.849s-1.857-0.828-1.857-1.849c0-1.021 0.832-1.849 1.857-1.849s1.857 0.828 1.857 1.849z"></path>
<path fill="#f8d24e" style="fill: var(--color1, #f8d24e)" d="M305.557 24.485c0 1.021-0.832 1.849-1.857 1.849s-1.857-0.828-1.857-1.849c0-1.021 0.832-1.849 1.857-1.849s1.857 0.828 1.857 1.849z"></path>
<path fill="#f8d24e" style="fill: var(--color1, #f8d24e)" d="M309.272 22.173c0 1.021-0.832 1.849-1.857 1.849s-1.857-0.828-1.857-1.849c0-1.021 0.832-1.849 1.857-1.849s1.857 0.828 1.857 1.849z"></path>
<path fill="#f8d24e" style="fill: var(--color1, #f8d24e)" d="M292.555 28.183c0 1.021-0.832 1.849-1.857 1.849s-1.857-0.828-1.857-1.849c0-1.021 0.832-1.849 1.857-1.849s1.857 0.828 1.857 1.849z"></path>
<path fill="#f8d24e" style="fill: var(--color1, #f8d24e)" d="M296.269 25.871c0 1.021-0.832 1.849-1.857 1.849s-1.857-0.828-1.857-1.849c0-1.021 0.832-1.849 1.857-1.849s1.857 0.828 1.857 1.849z"></path>
<path fill="#f8d24e" style="fill: var(--color1, #f8d24e)" d="M300.914 23.098c0 1.021-0.832 1.849-1.857 1.849s-1.857-0.828-1.857-1.849c0-1.021 0.832-1.849 1.857-1.849s1.857 0.828 1.857 1.849z"></path>
<path fill="#f8d24e" style="fill: var(--color1, #f8d24e)" d="M304.628 20.786c0 1.021-0.832 1.849-1.857 1.849s-1.857-0.828-1.857-1.849c0-1.021 0.832-1.849 1.857-1.849s1.857 0.828 1.857 1.849z"></path>
<path fill="#f8d24e" style="fill: var(--color1, #f8d24e)" d="M294.413 21.71c0 1.021-0.832 1.849-1.857 1.849s-1.857-0.828-1.857-1.849c0-1.021 0.832-1.849 1.857-1.849s1.857 0.828 1.857 1.849z"></path>
<path fill="#f8d24e" style="fill: var(--color1, #f8d24e)" d="M298.127 19.398c0 1.021-0.832 1.849-1.857 1.849s-1.857-0.828-1.857-1.849c0-1.021 0.832-1.849 1.857-1.849s1.857 0.828 1.857 1.849z"></path>
<path fill="#f8d24e" style="fill: var(--color1, #f8d24e)" d="M302.771 16.624c0 1.021-0.832 1.849-1.857 1.849s-1.857-0.828-1.857-1.849c0-1.021 0.832-1.849 1.857-1.849s1.857 0.828 1.857 1.849z"></path>
<path fill="#f8d24e" style="fill: var(--color1, #f8d24e)" d="M306.486 14.312c0 1.021-0.832 1.849-1.857 1.849s-1.857-0.828-1.857-1.849c0-1.021 0.832-1.849 1.857-1.849s1.857 0.828 1.857 1.849z"></path>
<path fill="#f8d24e" style="fill: var(--color1, #f8d24e)" d="M294.413 11.076c0 1.021-0.832 1.849-1.857 1.849s-1.857-0.828-1.857-1.849c0-1.021 0.832-1.849 1.857-1.849s1.857 0.828 1.857 1.849z"></path>
<path fill="#f8d24e" style="fill: var(--color1, #f8d24e)" d="M298.127 8.764c0 1.021-0.832 1.849-1.857 1.849s-1.857-0.828-1.857-1.849c0-1.021 0.832-1.849 1.857-1.849s1.857 0.828 1.857 1.849z"></path>
<path fill="#f8d24e" style="fill: var(--color1, #f8d24e)" d="M302.771 5.99c0 1.021-0.832 1.849-1.857 1.849s-1.857-0.828-1.857-1.849c0-1.021 0.832-1.849 1.857-1.849s1.857 0.828 1.857 1.849z"></path>
<path fill="#f8d24e" style="fill: var(--color1, #f8d24e)" d="M306.486 3.678c0 1.021-0.832 1.849-1.857 1.849s-1.857-0.828-1.857-1.849c0-1.021 0.832-1.849 1.857-1.849s1.857 0.828 1.857 1.849z"></path>
<path fill="#f8d24e" style="fill: var(--color1, #f8d24e)" d="M293.484 17.087c0 1.021-0.832 1.849-1.857 1.849s-1.857-0.828-1.857-1.849c0-1.021 0.832-1.849 1.857-1.849s1.857 0.828 1.857 1.849z"></path>
<path fill="#f8d24e" style="fill: var(--color1, #f8d24e)" d="M297.198 14.775c0 1.021-0.832 1.85-1.857 1.85s-1.857-0.828-1.857-1.849c0-1.021 0.832-1.849 1.857-1.849s1.857 0.828 1.857 1.849z"></path>
<path fill="#f8d24e" style="fill: var(--color1, #f8d24e)" d="M301.842 12c0 1.021-0.832 1.849-1.857 1.849s-1.857-0.828-1.857-1.849c0-1.021 0.832-1.849 1.857-1.849s1.857 0.828 1.857 1.849z"></path>
<path fill="#f8d24e" style="fill: var(--color1, #f8d24e)" d="M305.557 9.689c0 1.021-0.832 1.85-1.857 1.85s-1.857-0.828-1.857-1.849c0-1.021 0.832-1.849 1.857-1.849s1.857 0.828 1.857 1.849z"></path>
<path fill="#f8d24e" style="fill: var(--color1, #f8d24e)" d="M274.909 8.301c0 1.021-0.728 1.85-1.625 1.85s-1.625-0.828-1.625-1.849c0-1.021 0.728-1.849 1.625-1.849s1.625 0.828 1.625 1.849z"></path>
<path fill="#f8d24e" style="fill: var(--color1, #f8d24e)" d="M278.624 5.99c0 1.021-0.728 1.849-1.625 1.849s-1.625-0.828-1.625-1.849c0-1.021 0.728-1.849 1.625-1.849s1.625 0.828 1.625 1.849z"></path>
<path fill="#f8d24e" style="fill: var(--color1, #f8d24e)" d="M283.268 3.215c0 1.021-0.728 1.85-1.625 1.85s-1.625-0.828-1.625-1.849c0-1.021 0.728-1.849 1.625-1.849s1.625 0.828 1.625 1.849z"></path>
<path fill="#f8d24e" style="fill: var(--color1, #f8d24e)" d="M281.178 10.151c0.898 0 1.625-0.828 1.625-1.849s-0.728-1.849-1.625-1.849c-0.897 0-1.625 0.828-1.625 1.849s0.728 1.849 1.625 1.849z"></path>
<path fill="#f8d24e" style="fill: var(--color1, #f8d24e)" d="M3.715 27.362c0 1.025-0.832 1.855-1.857 1.855s-1.857-0.831-1.857-1.855c0-1.025 0.832-1.855 1.857-1.855s1.857 0.831 1.857 1.855z"></path>
<path fill="#f8d24e" style="fill: var(--color1, #f8d24e)" d="M7.43 25.043c0 1.025-0.832 1.855-1.857 1.855s-1.857-0.831-1.857-1.855c0-1.025 0.832-1.855 1.857-1.855s1.857 0.831 1.857 1.855z"></path>
<path fill="#f8d24e" style="fill: var(--color1, #f8d24e)" d="M12.074 22.261c0 1.025-0.832 1.855-1.857 1.855s-1.857-0.831-1.857-1.855c0-1.025 0.832-1.855 1.857-1.855s1.857 0.831 1.857 1.855z"></path>
<path fill="#f8d24e" style="fill: var(--color1, #f8d24e)" d="M15.789 19.942c0 1.025-0.832 1.855-1.857 1.855s-1.857-0.831-1.857-1.855c0-1.025 0.832-1.855 1.857-1.855s1.857 0.831 1.857 1.855z"></path>
<path fill="#f8d24e" style="fill: var(--color1, #f8d24e)" d="M26.005 28.29c0 1.025-0.832 1.855-1.857 1.855s-1.857-0.831-1.857-1.855c0-1.025 0.832-1.855 1.857-1.855s1.857 0.831 1.857 1.855z"></path>
<path fill="#f8d24e" style="fill: var(--color1, #f8d24e)" d="M29.72 25.971c0 1.025-0.832 1.855-1.857 1.855s-1.857-0.831-1.857-1.855c0-1.025 0.832-1.855 1.857-1.855s1.857 0.831 1.857 1.855z"></path>
<path fill="#f8d24e" style="fill: var(--color1, #f8d24e)" d="M34.363 23.188c0 1.025-0.832 1.855-1.857 1.855s-1.857-0.831-1.857-1.855c0-1.025 0.832-1.855 1.857-1.855s1.857 0.831 1.857 1.855z"></path>
<path fill="#f8d24e" style="fill: var(--color1, #f8d24e)" d="M38.079 20.87c0 1.025-0.832 1.855-1.857 1.855s-1.857-0.831-1.857-1.855c0-1.025 0.832-1.855 1.857-1.855s1.857 0.831 1.857 1.855z"></path>
<path fill="#f8d24e" style="fill: var(--color1, #f8d24e)" d="M34.364 26.899c0 1.025-0.728 1.855-1.626 1.855s-1.625-0.831-1.625-1.855c0-1.025 0.728-1.855 1.625-1.855s1.626 0.831 1.626 1.855z"></path>
<path fill="#f8d24e" style="fill: var(--color1, #f8d24e)" d="M38.079 24.58c0 1.025-0.728 1.855-1.626 1.855s-1.626-0.831-1.626-1.855c0-1.025 0.728-1.855 1.626-1.855s1.626 0.831 1.626 1.855z"></path>
<path fill="#f8d24e" style="fill: var(--color1, #f8d24e)" d="M42.258 22.261c0 1.025-0.728 1.855-1.626 1.855s-1.626-0.831-1.626-1.855c0-1.025 0.728-1.855 1.626-1.855s1.626 0.831 1.626 1.855z"></path>
<path fill="#f8d24e" style="fill: var(--color1, #f8d24e)" d="M46.438 19.942c0 1.025-0.728 1.855-1.626 1.855s-1.626-0.831-1.626-1.855c0-1.025 0.728-1.855 1.626-1.855s1.626 0.831 1.626 1.855z"></path>
<path fill="#f8d24e" style="fill: var(--color1, #f8d24e)" d="M51.081 16.232c0 1.025-0.728 1.855-1.626 1.855s-1.626-0.831-1.626-1.855c0-1.025 0.728-1.855 1.626-1.855s1.626 0.831 1.626 1.855z"></path>
<path fill="#f8d24e" style="fill: var(--color1, #f8d24e)" d="M41.33 18.087c0 1.025-0.728 1.855-1.626 1.855s-1.626-0.831-1.626-1.855c0-1.025 0.728-1.855 1.626-1.855s1.626 0.831 1.626 1.855z"></path>
<path fill="#f8d24e" style="fill: var(--color1, #f8d24e)" d="M17.646 28.29c0 1.025-0.832 1.855-1.857 1.855s-1.857-0.831-1.857-1.855c0-1.025 0.832-1.855 1.857-1.855s1.857 0.831 1.857 1.855z"></path>
<path fill="#f8d24e" style="fill: var(--color1, #f8d24e)" d="M21.361 25.971c0 1.025-0.832 1.855-1.857 1.855s-1.857-0.831-1.857-1.855c0-1.025 0.832-1.855 1.857-1.855s1.857 0.831 1.857 1.855z"></path>
<path fill="#f8d24e" style="fill: var(--color1, #f8d24e)" d="M26.005 23.188c0 1.025-0.832 1.855-1.857 1.855s-1.857-0.831-1.857-1.855c0-1.025 0.832-1.855 1.857-1.855s1.857 0.831 1.857 1.855z"></path>
<path fill="#f8d24e" style="fill: var(--color1, #f8d24e)" d="M29.72 20.87c0 1.025-0.832 1.855-1.857 1.855s-1.857-0.831-1.857-1.855c0-1.025 0.832-1.855 1.857-1.855s1.857 0.831 1.857 1.855z"></path>
<path fill="#f8d24e" style="fill: var(--color1, #f8d24e)" d="M10.216 27.826c0 1.025-0.832 1.855-1.857 1.855s-1.857-0.831-1.857-1.855c0-1.025 0.832-1.855 1.857-1.855s1.857 0.831 1.857 1.855z"></path>
<path fill="#f8d24e" style="fill: var(--color1, #f8d24e)" d="M13.931 25.507c0 1.025-0.832 1.855-1.857 1.855s-1.857-0.831-1.857-1.855c0-1.025 0.832-1.855 1.857-1.855s1.857 0.831 1.857 1.855z"></path>
<path fill="#f8d24e" style="fill: var(--color1, #f8d24e)" d="M18.575 22.725c0 1.025-0.832 1.855-1.857 1.855s-1.857-0.831-1.857-1.855c0-1.025 0.832-1.855 1.857-1.855s1.857 0.831 1.857 1.855z"></path>
<path fill="#f8d24e" style="fill: var(--color1, #f8d24e)" d="M22.29 20.406c0 1.025-0.832 1.855-1.857 1.855s-1.857-0.831-1.857-1.855c0-1.025 0.832-1.855 1.857-1.855s1.857 0.831 1.857 1.855z"></path>
</symbol>
<symbol id="icon-group_2" viewBox="0 0 100 32">
<path fill="#f8d24e" style="fill: var(--color1, #f8d24e)" d="M45.81 25.797c0 0.287-0.219 0.52-0.488 0.52s-0.488-0.233-0.488-0.52c0-0.287 0.219-0.52 0.488-0.52s0.488 0.233 0.488 0.52z"></path>
<path fill="#f8d24e" style="fill: var(--color1, #f8d24e)" d="M46.949 25.104c0 0.287-0.219 0.52-0.488 0.52s-0.488-0.233-0.488-0.52c0-0.287 0.219-0.52 0.488-0.52s0.488 0.233 0.488 0.52z"></path>
<path fill="#f8d24e" style="fill: var(--color1, #f8d24e)" d="M44.915 27.705c0 0.287-0.219 0.52-0.488 0.52s-0.488-0.233-0.488-0.52c0-0.287 0.219-0.52 0.488-0.52s0.488 0.233 0.488 0.52z"></path>
<path fill="#f8d24e" style="fill: var(--color1, #f8d24e)" d="M45.972 27.011c0 0.287-0.219 0.52-0.488 0.52s-0.488-0.233-0.488-0.52c0-0.287 0.219-0.52 0.488-0.52s0.488 0.233 0.488 0.52z"></path>
<path fill="#f8d24e" style="fill: var(--color1, #f8d24e)" d="M47.193 26.231c0 0.287-0.219 0.52-0.488 0.52s-0.488-0.233-0.488-0.52c0-0.287 0.219-0.52 0.488-0.52s0.488 0.233 0.488 0.52z"></path>
<path fill="#f8d24e" style="fill: var(--color1, #f8d24e)" d="M48.332 25.537c0 0.287-0.219 0.52-0.488 0.52s-0.488-0.233-0.488-0.52c0-0.287 0.219-0.52 0.488-0.52s0.488 0.233 0.488 0.52z"></path>
<path fill="#f8d24e" style="fill: var(--color1, #f8d24e)" d="M46.705 27.792c0 0.287-0.219 0.52-0.488 0.52s-0.488-0.233-0.488-0.52c0-0.287 0.219-0.52 0.488-0.52s0.488 0.233 0.488 0.52z"></path>
<path fill="#f8d24e" style="fill: var(--color1, #f8d24e)" d="M47.762 27.098c0 0.287-0.219 0.52-0.488 0.52s-0.488-0.233-0.488-0.52c0-0.287 0.219-0.52 0.488-0.52s0.488 0.233 0.488 0.52z"></path>
<path fill="#f8d24e" style="fill: var(--color1, #f8d24e)" d="M48.983 26.318c0 0.287-0.219 0.52-0.488 0.52s-0.488-0.233-0.488-0.52c0-0.287 0.219-0.52 0.488-0.52s0.488 0.233 0.488 0.52z"></path>
<path fill="#f8d24e" style="fill: var(--color1, #f8d24e)" d="M50.122 25.624c0 0.287-0.219 0.52-0.488 0.52s-0.488-0.233-0.488-0.52c0-0.287 0.219-0.52 0.488-0.52s0.488 0.233 0.488 0.52z"></path>
<path fill="#f8d24e" style="fill: var(--color1, #f8d24e)" d="M48.82 27.792c0 0.287-0.219 0.52-0.488 0.52s-0.488-0.233-0.488-0.52c0-0.287 0.219-0.52 0.488-0.52s0.488 0.233 0.488 0.52z"></path>
<path fill="#f8d24e" style="fill: var(--color1, #f8d24e)" d="M49.878 27.098c0 0.287-0.219 0.52-0.488 0.52s-0.488-0.233-0.488-0.52c0-0.287 0.219-0.52 0.488-0.52s0.488 0.233 0.488 0.52z"></path>
<path fill="#f8d24e" style="fill: var(--color1, #f8d24e)" d="M51.098 26.318c0 0.287-0.219 0.52-0.488 0.52s-0.488-0.233-0.488-0.52c0-0.287 0.219-0.52 0.488-0.52s0.488 0.233 0.488 0.52z"></path>
<path fill="#f8d24e" style="fill: var(--color1, #f8d24e)" d="M52.238 25.624c0 0.287-0.219 0.52-0.488 0.52s-0.488-0.233-0.488-0.52c0-0.287 0.219-0.52 0.488-0.52s0.488 0.233 0.488 0.52z"></path>
<path fill="#f8d24e" style="fill: var(--color1, #f8d24e)" d="M50.61 27.705c0 0.287-0.219 0.52-0.488 0.52s-0.488-0.233-0.488-0.52c0-0.287 0.219-0.52 0.488-0.52s0.488 0.233 0.488 0.52z"></path>
<path fill="#f8d24e" style="fill: var(--color1, #f8d24e)" d="M51.668 27.011c0 0.287-0.219 0.52-0.488 0.52s-0.488-0.233-0.488-0.52c0-0.287 0.219-0.52 0.488-0.52s0.488 0.233 0.488 0.52z"></path>
<path fill="#f8d24e" style="fill: var(--color1, #f8d24e)" d="M52.889 26.231c0 0.287-0.219 0.52-0.488 0.52s-0.488-0.233-0.488-0.52c0-0.287 0.219-0.52 0.488-0.52s0.488 0.233 0.488 0.52z"></path>
<path fill="#f8d24e" style="fill: var(--color1, #f8d24e)" d="M54.028 25.537c0 0.287-0.219 0.52-0.488 0.52s-0.488-0.233-0.488-0.52c0-0.287 0.219-0.52 0.488-0.52s0.488 0.233 0.488 0.52z"></path>
<path fill="#f8d24e" style="fill: var(--color1, #f8d24e)" d="M52.644 27.618c0 0.287-0.219 0.52-0.488 0.52s-0.488-0.233-0.488-0.52c0-0.287 0.219-0.52 0.488-0.52s0.488 0.233 0.488 0.52z"></path>
<path fill="#f8d24e" style="fill: var(--color1, #f8d24e)" d="M53.702 26.925c0 0.287-0.219 0.52-0.488 0.52s-0.488-0.233-0.488-0.52c0-0.287 0.219-0.52 0.488-0.52s0.488 0.233 0.488 0.52z"></path>
<path fill="#f8d24e" style="fill: var(--color1, #f8d24e)" d="M54.923 26.144c0 0.287-0.219 0.52-0.488 0.52s-0.488-0.233-0.488-0.52c0-0.287 0.219-0.52 0.488-0.52s0.488 0.233 0.488 0.52z"></path>
<path fill="#f8d24e" style="fill: var(--color1, #f8d24e)" d="M56.062 25.45c0 0.287-0.219 0.52-0.488 0.52s-0.488-0.233-0.488-0.52c0-0.287 0.219-0.52 0.488-0.52s0.488 0.233 0.488 0.52z"></path>
<path fill="#f8d24e" style="fill: var(--color1, #f8d24e)" d="M54.516 25.364c0 0.287-0.219 0.52-0.488 0.52s-0.488-0.233-0.488-0.52c0-0.287 0.219-0.52 0.488-0.52s0.488 0.233 0.488 0.52z"></path>
<path fill="#f8d24e" style="fill: var(--color1, #f8d24e)" d="M55.574 24.67c0 0.287-0.219 0.52-0.488 0.52s-0.488-0.233-0.488-0.52c0-0.287 0.219-0.52 0.488-0.52s0.488 0.233 0.488 0.52z"></path>
<path fill="#f8d24e" style="fill: var(--color1, #f8d24e)" d="M56.794 23.889c0 0.287-0.219 0.52-0.488 0.52s-0.488-0.233-0.488-0.52c0-0.287 0.219-0.52 0.488-0.52s0.488 0.233 0.488 0.52z"></path>
<path fill="#f8d24e" style="fill: var(--color1, #f8d24e)" d="M57.933 23.196c0 0.287-0.219 0.52-0.488 0.52s-0.488-0.233-0.488-0.52c0-0.287 0.219-0.52 0.488-0.52s0.488 0.233 0.488 0.52z"></path>
</symbol>
</defs>
</svg>
