<svg aria-hidden="true" style="position: absolute; width: 0; height: 0; overflow: hidden;" version="1.1" xmlns="http://www.w3.org/2000/svg" xmlns:xlink="http://www.w3.org/1999/xlink">
<defs>
<symbol id="icon-telegram" viewBox="0 0 44 32">
<path  d="M17.346 21.048l-0.675 8.86c0.966 0 1.384-0.387 1.885-0.852l4.527-4.038 9.381 6.412c1.72 0.895 2.933 0.424 3.397-1.477l6.158-26.929 0.002-0.002c0.546-2.374-0.92-3.302-2.596-2.72l-36.194 12.933c-2.47 0.895-2.433 2.18-0.42 2.762l9.253 2.686 21.494-12.552c1.011-0.625 1.931-0.279 1.175 0.346l-17.386 14.57z"></path>
</symbol>
<symbol id="icon-github" viewBox="0 0 32 32">
<path  d="M16 0c-8.788 0-16 7.212-16 16 0 7.499 5.262 14.312 12.25 16v-5.293c-0.692 0.152-1.33 0.156-2.034-0.052-0.946-0.279-1.714-0.909-2.284-1.869-0.364-0.613-1.008-1.278-1.68-1.23l-0.165-1.868c1.453-0.124 2.711 0.886 3.457 2.14 0.332 0.558 0.713 0.884 1.203 1.029 0.473 0.14 0.982 0.072 1.574-0.137 0.149-1.186 0.692-1.63 1.102-2.255v-0.001c-4.167-0.622-5.828-2.832-6.488-4.578-0.874-2.317-0.405-5.212 1.14-7.041 0.030-0.036 0.084-0.129 0.063-0.194-0.708-2.139 0.155-3.909 0.187-4.097 0.817 0.242 0.95-0.243 3.551 1.337l0.449 0.27c0.188 0.112 0.129 0.048 0.317 0.034 1.086-0.295 2.23-0.458 3.358-0.472 1.136 0.015 2.273 0.178 3.404 0.484l0.145 0.015c-0.013-0.002 0.040-0.009 0.127-0.062 3.248-1.968 3.132-1.324 4.003-1.608 0.032 0.188 0.883 1.987 0.182 4.099-0.095 0.291 2.816 2.956 1.203 7.235-0.659 1.746-2.32 3.957-6.487 4.578v0.001c0.534 0.814 1.176 1.247 1.173 2.927v6.608c6.988-1.688 12.25-8.501 12.25-16 0-8.788-7.212-16-16-16v0z"></path>
</symbol>
<symbol id="icon-facebook" viewBox="0 0 16 32">
<path  d="M14.143 15.972h-4.034v14.865h-6.112v-14.865h-2.907v-5.224h2.907v-3.381c0-2.418 1.142-6.203 6.166-6.203l4.527 0.019v5.071h-3.285c-0.539 0-1.296 0.271-1.296 1.424v3.075h4.567l-0.534 5.219z"></path>
</symbol>
<symbol id="btn-arrow" viewBox="0 0 7 10">
<path d="M.97.227a.75.75 0 0 0 0 1.06L4.682 5 .97 8.713a.75.75 0 0 0 1.06 1.06L6.273 5.53a.75.75 0 0 0 0-1.06L2.03.227a.75.75 0 0 0-1.06 0Z"/>
</symbol>
<symbol id="close-icon__mob" viewBox="0 0 32 32">
<path d="m17.253 16 7.369-7.369a.886.886 0 0 0-.047-1.207.89.89 0 0 0-1.206-.047L16 14.746 8.631 7.368A.892.892 0 0 0 7.369 8.63l7.378 7.369-7.378 7.369a.891.891 0 0 0-.05 1.304.89.89 0 0 0 1.304-.051l7.378-7.369 7.369 7.369a.885.885 0 0 0 1.206-.047.89.89 0 0 0 .047-1.206l-7.369-7.369z"/>
</symbol>
<symbol id="close-icon__desk" viewBox="0 0 32 32">
<path d="m17.253 16 7.369-7.369a.885.885 0 0 0-.047-1.206.893.893 0 0 0-1.207-.047l-7.369 7.369L8.63 7.369a.892.892 0 0 0-1.262 1.262L14.746 16l-7.378 7.369a.891.891 0 0 0-.05 1.304.906.906 0 0 0 .663.26.88.88 0 0 0 .641-.31L16 17.254l7.369 7.369a.886.886 0 0 0 1.207-.047.893.893 0 0 0 .047-1.207L17.254 16z"/>
</symbol>
<symbol id="icon-arrow" viewBox="0 0 82 32">
<path d="M81.414 17.414c0.781-0.781 0.781-2.047 0-2.828l-12.728-12.728c-0.781-0.781-2.047-0.781-2.828 0s-0.781 2.047 0 2.828l11.314 11.314-11.314 11.314c-0.781 0.781-0.781 2.047 0 2.828s2.047 0.781 2.828 0l12.728-12.728zM0 18h80v-4h-80v4z"></path></symbol><symbol id="icon-x" viewBox="0 0 32 32"><path d="M17.253 16l7.369-7.369c0.146-0.17 0.222-0.389 0.213-0.613s-0.101-0.436-0.26-0.594c-0.158-0.158-0.37-0.251-0.594-0.26s-0.442 0.067-0.612 0.213l-7.369 7.369-7.369-7.378c-0.167-0.167-0.394-0.261-0.631-0.261s-0.464 0.094-0.631 0.261c-0.167 0.167-0.261 0.394-0.261 0.631s0.094 0.464 0.261 0.631l7.378 7.369-7.378 7.369c-0.093 0.080-0.169 0.178-0.222 0.288s-0.083 0.23-0.088 0.353c-0.005 0.123 0.016 0.245 0.061 0.359s0.112 0.218 0.199 0.304c0.087 0.087 0.19 0.154 0.304 0.199s0.236 0.065 0.359 0.060c0.122-0.005 0.243-0.035 0.353-0.088s0.208-0.129 0.288-0.222l7.378-7.369 7.369 7.369c0.17 0.146 0.389 0.222 0.612 0.213s0.436-0.101 0.594-0.26c0.158-0.158 0.251-0.37 0.26-0.594s-0.067-0.442-0.213-0.612l-7.369-7.369z">
</path></symbol>
<symbol id="close-icon__mob" viewBox="0 0 32 32">
<path d="m17.253 16 7.369-7.369a.886.886 0 0 0-.047-1.207.89.89 0 0 0-1.206-.047L16 14.746 8.631 7.368A.892.892 0 0 0 7.369 8.63l7.378 7.369-7.378 7.369a.891.891 0 0 0-.05 1.304.89.89 0 0 0 1.304-.051l7.378-7.369 7.369 7.369a.885.885 0 0 0 1.206-.047.89.89 0 0 0 .047-1.206l-7.369-7.369z"/>
</symbol>
<symbol id="close-icon__desk" viewBox="0 0 32 32">
<path d="m17.253 16 7.369-7.369a.885.885 0 0 0-.047-1.206.893.893 0 0 0-1.207-.047l-7.369 7.369L8.63 7.369a.892.892 0 0 0-1.262 1.262L14.746 16l-7.378 7.369a.891.891 0 0 0-.05 1.304.906.906 0 0 0 .663.26.88.88 0 0 0 .641-.31L16 17.254l7.369 7.369a.886.886 0 0 0 1.207-.047.893.893 0 0 0 .047-1.207L17.254 16z"/>
</symbol>
<symbol id="icon-menu" viewBox="0 0 32 32">
<path d="M26.7333 14H5.26667C4.56711 14 4 14.4253 4 14.95V15.05C4 15.5747 4.56711 16 5.26667 16H26.7333C27.4329 16 28 15.5747 28 15.05V14.95C28 14.4253 27.4329 14 26.7333 14Z" />
<path d="M26.7333 20H5.26667C4.56711 20 4 20.4253 4 20.95V21.05C4 21.5747 4.56711 22 5.26667 22H26.7333C27.4329 22 28 21.5747 28 21.05V20.95C28 20.4253 27.4329 20 26.7333 20Z" />
<path d="M26.7333 8H5.26667C4.56711 8 4 8.42533 4 8.95V9.05C4 9.57467 4.56711 10 5.26667 10H26.7333C27.4329 10 28 9.57467 28 9.05V8.95C28 8.42533 27.4329 8 26.7333 8Z" />
</symbol>
<symbol id="icon-cross" viewBox="0 0 32 32">
<path d="M23.884 6.70597L16 14.59L8.11602 6.70597C7.9264 6.53245 7.67714 6.43878 7.42017 6.44448C7.1632 6.45017 6.91833 6.55479 6.73658 6.73654C6.55484 6.91829 6.45022 7.16315 6.44452 7.42012C6.43883 7.67709 6.5325 7.92635 6.70602 8.11597L14.586 16L6.70402 23.882C6.60773 23.9737 6.53075 24.0838 6.47761 24.2058C6.42448 24.3277 6.39626 24.4591 6.39461 24.5921C6.39296 24.7251 6.41792 24.8571 6.46802 24.9803C6.51812 25.1035 6.59235 25.2155 6.68634 25.3096C6.78033 25.4038 6.89219 25.4781 7.01535 25.5284C7.1385 25.5787 7.27046 25.6038 7.40348 25.6024C7.53649 25.6009 7.66787 25.5729 7.78989 25.5199C7.91191 25.467 8.02211 25.3901 8.11402 25.294L16 17.412L23.884 25.296C24.0736 25.4695 24.3229 25.5632 24.5799 25.5575C24.8368 25.5518 25.0817 25.4472 25.2635 25.2654C25.4452 25.0837 25.5498 24.8388 25.5555 24.5818C25.5612 24.3249 25.4675 24.0756 25.294 23.886L17.41 16.002L25.294 8.11597C25.3903 8.0242 25.4673 7.91411 25.5204 7.79216C25.5736 7.67022 25.6018 7.53888 25.6034 7.40587C25.6051 7.27286 25.5801 7.14086 25.53 7.01763C25.4799 6.89441 25.4057 6.78244 25.3117 6.68832C25.2177 6.59419 25.1058 6.5198 24.9827 6.46953C24.8595 6.41926 24.7276 6.39411 24.5946 6.39557C24.4616 6.39703 24.3302 6.42506 24.2082 6.47802C24.0861 6.53099 23.9759 6.60781 23.884 6.70397V6.70597Z" />
</symbol>
</defs>
</svg>
